<?xml version="1.0" standalone="no"?><svg xmlns="http://www.w3.org/2000/svg" viewBox="0 0 1440 320"><path fill="#ff5500" fill-opacity="1" d="M0,128L16,149.3C32,171,64,213,96,213.3C128,213,160,171,192,176C224,181,256,235,288,234.7C320,235,352,181,384,176C416,171,448,213,480,224C512,235,544,213,576,176C608,139,640,85,672,69.3C704,53,736,75,768,80C800,85,832,75,864,69.3C896,64,928,64,960,106.7C992,149,1024,235,1056,272C1088,309,1120,299,1152,250.7C1184,203,1216,117,1248,85.3C1280,53,1312,75,1344,80C1376,85,1408,75,1424,69.3L1440,64L1440,320L1424,320C1408,320,1376,320,1344,320C1312,320,1280,320,1248,320C1216,320,1184,320,1152,320C1120,320,1088,320,1056,320C1024,320,992,320,960,320C928,320,896,320,864,320C832,320,800,320,768,320C736,320,704,320,672,320C640,320,608,320,576,320C544,320,512,320,480,320C448,320,416,320,384,320C352,320,320,320,288,320C256,320,224,320,192,320C160,320,128,320,96,320C64,320,32,320,16,320L0,320Z"></path></svg>